<?xml version="1.0" encoding="UTF-8"?>
<!DOCTYPE svg PUBLIC "-//W3C//DTD SVG 1.1//EN" "http://www.w3.org/Graphics/SVG/1.1/DTD/svg11.dtd">
<!-- Creator: CorelDRAW 2020 (64-Bit) -->
<svg xmlns="http://www.w3.org/2000/svg" xml:space="preserve" width="3.33333in" height="4.59999in" version="1.1" style="shape-rendering:geometricPrecision; text-rendering:geometricPrecision; image-rendering:optimizeQuality; fill-rule:evenodd; clip-rule:evenodd"
viewBox="0 0 3333.33 4599.99"
 xmlns:xlink="http://www.w3.org/1999/xlink"
 xmlns:xodm="http://www.corel.com/coreldraw/odm/2003">
 <defs>
  <style type="text/css">
   <![CDATA[
    .fil4 {fill:#FEFEFE}
    .fil1 {fill:#FFF212}
    .fil0 {fill:#3E4095}
    .fil5 {fill:#373435;fill-rule:nonzero}
    .fil3 {fill:#FFF212;fill-rule:nonzero}
    .fil2 {fill:#3E4095;fill-rule:nonzero}
   ]]>
  </style>
 </defs>
 <g id="Layer_x0020_1">
  <metadata id="CorelCorpID_0Corel-Layer"/>
  <g id="_1336433277824">
   <path class="fil0" d="M-0 2248.98l485.8 527.21 0 1395.46c-177.9,-166.09 -338.92,-375.53 -485.8,-621.27l0 -1301.41z"/>
   <path class="fil0" d="M3333.33 2248.98l-485.8 527.21 0 1395.46c177.91,-166.09 338.93,-375.53 485.8,-621.27l0 -1301.41z"/>
   <ellipse class="fil1" cx="1669.28" cy="2004.68" rx="1396.37" ry="1984.97"/>
   <path class="fil2" d="M1669.28 -0c392.39,0 747.14,225.39 1003.48,589.78 254.93,362.39 412.61,862.66 412.61,1414.91 0,552.25 -157.68,1052.52 -412.61,1414.91 -256.34,364.4 -611.09,589.78 -1003.48,589.78 -392.39,0 -747.14,-225.39 -1003.48,-589.78 -254.93,-362.39 -412.61,-862.66 -412.61,-1414.91 0,-552.24 157.68,-1052.52 412.61,-1414.91 256.34,-364.39 611.09,-589.78 1003.48,-589.78zm971.28 612.42c-249.04,-354.02 -592.48,-572.99 -971.28,-572.99 -378.8,0 -722.24,218.97 -971.28,572.99 -250.45,356.03 -405.37,848.25 -405.37,1392.27 0,544.02 154.91,1036.24 405.37,1392.27 249.04,354.02 592.48,572.99 971.28,572.99 378.8,0 722.24,-218.97 971.28,-572.99 250.45,-356.03 405.37,-848.25 405.37,-1392.27 0,-544.02 -154.91,-1036.24 -405.37,-1392.27z"/>
   <path class="fil0" d="M1669.28 144.09c722.86,0 1308.86,833.02 1308.86,1860.59 0,1027.57 -586,1860.59 -1308.86,1860.59 -722.87,0 -1308.87,-833.02 -1308.87,-1860.59 0,-1027.57 586,-1860.59 1308.87,-1860.59zm0 881.36c517.21,0 936.5,601.28 936.5,1342.99 0,741.71 -419.28,1342.99 -936.5,1342.99 -517.22,0 -936.5,-601.28 -936.5,-1342.99 0,-741.71 419.28,-1342.99 936.5,-1342.99z"/>
   <path class="fil3" d="M546.41 1977.88l4.29 -56.31 -36.21 -2.77 -4.29 56.3c-17.63,-1.3 -29,-2.87 -34.04,-4.67 -13.34,-4.99 -19.49,-14.23 -18.52,-27.6 1.03,-13.19 7.19,-21.09 18.52,-23.83 1.89,-0.31 8.15,-1 18.67,-2.14l2.39 -31.7c-2.79,-0.69 -5.51,-1.15 -8.11,-1.3 -14.38,-1.09 -28.13,2.91 -41.19,12.1 -15.25,10.69 -23.5,23.63 -24.64,38.89 -2,26.97 5.4,46.31 22.28,58.02 14.67,10.07 35.35,15.84 62.03,17.37l-2.01 26.26 36.21 2.77 2 -26.26 176.09 13.23 2.59 -35.13 -176.08 -13.23z"/>
   <path id="1" class="fil3" d="M582.7 1715.39l173.74 32.23 -6.82 36.5 -173.74 -32.22 -5.25 28.36 116.53 21.6c18.85,3.5 32.19,11.77 40.12,24.8 6.47,10.54 8.49,22.5 6.02,35.73 -3.87,20.73 -16.35,36.94 -37.5,48.62 -19.79,10.81 -40.03,14.22 -60.71,10.41 -25.06,-4.65 -39.43,-18.53 -43.07,-41.6 -1.85,-12.18 -0.3,-30.92 4.65,-56.26l-32.98 -6.09 -17.87 96.41 -35.1 -6.52 42.5 -229.02 35.11 6.52 -5.62 30.54zm48.35 114.57c-4.2,17.54 -5.8,30.78 -4.82,39.65 1.03,8.87 6.75,14.27 17.2,16.2 10.94,2.05 22.06,0.26 33.43,-5.31 12.21,-6.1 19.28,-14.23 21.15,-24.45 1.2,-6.26 -1.38,-11.3 -7.63,-15.1l-59.33 -10.98z"/>
   <path id="2" class="fil3" d="M651.2 1455.56l169.59 48.98 -9.94 34.41 -101.89 -29.4c2.95,16.14 8.09,28.08 15.43,35.88 3.61,3.79 13.6,10.7 29.98,20.87 16.38,10.17 22.52,22.29 18.44,36.41 -0.89,3.2 -2.48,6.56 -4.73,10.11 -6.21,9.52 -13.96,13 -23.3,10.28 -10.88,-3.14 -20.76,-11.89 -29.68,-26.25 -5.5,-8.99 -9.58,-14.96 -12.18,-17.92 -4.91,-5.14 -10.88,-8.69 -17.92,-10.76 -2.07,-0.59 -4.26,-1.06 -6.56,-1.48 -21.59,-3.79 -33.17,-4.08 -34.83,-0.83 -1.06,1.89 0.77,6.74 5.39,14.48 4.67,7.75 9.4,15.61 14.24,23.65 11.77,19.63 23.41,31.75 34.89,36.24 10.35,4.26 17.56,10.41 21.64,18.44 3.43,6.86 4.07,13.95 2,21.22 -1.95,6.62 -5.62,11.53 -11.18,14.89 -5.5,3.31 -11.53,4.02 -18.09,2.12 -8.87,-2.54 -17.27,-9.28 -25.19,-20.16 -4.91,-6.86 -8.75,-11.3 -11.65,-13.37 -3.55,-2.95 -9.22,-5.44 -16.96,-7.45 -5.8,-1.42 -15.38,-3.07 -28.86,-5.03 -6.09,-0.06 -10.17,0.41 -12.18,1.3 -2.6,1.48 -4.56,4.43 -5.92,8.98l-4.49 15.66 -34.42 -9.94 8.88 -30.68c1.72,-5.91 7.1,-10.87 16.09,-14.95 6.85,-3.19 13.07,-5.08 18.63,-5.73 11.24,-0.65 23.35,0.48 36.25,3.5 -4.14,-7.09 -9.93,-18.03 -17.5,-32.81 -3.13,-6.03 -6.15,-12.24 -9.05,-18.45 -3.55,-8.93 -4.49,-15.49 -2.83,-19.69 3.49,-8.63 18.34,-14.3 44.48,-17.07 5.85,-0.77 16.91,-0.17 33.06,1.78 -4.91,-13.72 -7.62,-25 -8.27,-33.81l-65.7 -18.99 20.06 -69.52 34.42 9.94 -10.12 35.11z"/>
   <polygon id="3" class="fil3" points="693.2,1342.37 682,1372.87 772.09,1405.87 760.78,1436.72 670.68,1403.72 663.26,1423.93 629.57,1411.54 659.5,1329.99 "/>
   <path id="4" class="fil3" d="M767.7 1244.49c11.37,-14.54 25.91,-24.76 43.74,-30.64 18.96,-6.17 36.51,-5.55 52.62,1.86 19.82,9.03 33.19,20.51 40.15,34.31 6.15,12.74 7.9,29.13 5.26,49.21l-32.33 -14.76c-0.54,-10.7 -3.04,-18.58 -7.45,-23.74 -3.47,-3.86 -10.19,-8.15 -20.34,-12.75 -10.09,-4.67 -21.15,-3.83 -33.13,2.37 -11.02,5.85 -18.99,14.27 -24.01,25.24 -5.15,11.21 -6.21,23.02 -3.2,35.57 2.95,12.55 9.47,21.15 19.62,25.75 9.91,4.55 17.59,6.78 23.09,6.68 7.04,0.09 14.56,-3.12 22.7,-9.52l32.27 14.77c-13.5,15.42 -27.09,24.81 -40.59,28.22 -15.16,4 -32.59,1.43 -52.42,-7.59 -16.11,-7.41 -28.04,-20.36 -35.69,-38.96 -7.13,-17.3 -8.99,-34.93 -5.47,-52.81l-24.25 -11.06 -31.7 69.3 -32.57 -14.88 85.28 -186.31 32.56 14.89 -38.39 83.81 24.25 11.06z"/>
   <path id="5" class="fil3" d="M950.76 894.5l95.16 70.43c12.2,9.03 20.5,19.76 24.89,32.14 5.44,14.92 3.26,28.98 -6.56,42.3 -13.38,18.04 -36.43,28.76 -69.26,32.3 -32.78,3.48 -58.3,-1.53 -76.58,-15.08 -19.64,-14.5 -20.27,-34.07 -2.02,-58.71l39.36 -53.11 -27.24 -20.21 -70.75 95.48 -28.66 -21.22 118.85 -160.43 28.66 21.22 -25.86 34.89zm33.66 71.48l-35.14 47.33c-3.33,4.54 -5.23,7.55 -5.71,8.96 -1.5,3.6 -0.56,6.32 2.74,8.22 9.09,4.94 24.05,6.66 44.98,5.15 22.54,-1.74 36.93,-6.77 43.11,-15.14 5.59,-7.55 3.49,-14.94 -6.24,-22.13l-43.75 -32.39z"/>
   <path id="6" class="fil3" d="M1129.64 721.41c7.19,11.39 12.13,21.89 14.82,31.58 3.7,12.87 5.81,24.69 6.31,35.44 24.42,-3.03 43.48,2.59 57.18,16.97 14.48,15.2 18.85,32.63 12.99,52.28 -5.15,17.51 -17.57,35.17 -37.15,52.96 -11.74,10.68 -30.22,17.71 -55.53,21.21 -24.24,3.21 -39.08,1.83 -44.48,-4.12 -2.43,-2.65 -1.91,-5.43 1.39,-8.46 4.19,-3.85 16,-8.8 35.37,-14.89 19.38,-6.15 31.26,-11.03 35.62,-14.65 3.3,-2.67 6.26,-5.22 8.85,-7.59 24.36,-22.12 28.74,-39.75 13.26,-52.95 -5.51,-5 -14.44,-5.93 -26.8,-2.87 -12.41,3.05 -22.56,8.17 -30.41,15.35 -3.36,3.02 -6.95,7.47 -10.9,13.39 -5.83,8.3 -9.19,13.04 -10.07,14.16 -2.3,2.78 -4.65,5.27 -7.13,7.47 -14.87,13.52 -27.69,13.86 -38.5,0.94 -7.12,-8.2 -8.15,-16.53 -3.03,-25 2.18,-3.91 8.24,-10.43 18.21,-19.5 2.3,-2.02 7.08,-5.4 14.41,-9.98 7.32,-4.63 12.74,-8.55 16.22,-11.69 8.91,-8.13 13.49,-16.83 13.7,-26.06 0.21,-9.22 -4.09,-21.92 -12.95,-37.97l-104.5 94.96 -24.09 -26.53 159.06 -144.6 24.15 26.53 -26.01 23.61z"/>
   <path id="7" class="fil3" d="M1227.26 658.85l48.27 -29.73 -19.02 -30.91 -48.33 29.73c-9.24,-15.04 -14.66,-25.17 -16.18,-30.31 -3.75,-13.78 0.06,-24.17 11.55,-31.24 11.25,-6.95 21.31,-6.62 30.16,0.96 1.41,1.36 5.66,5.98 12.68,13.81l27.19 -16.72c-1.06,-2.66 -2.3,-5.09 -3.71,-7.34 -7.54,-12.26 -18.87,-21.03 -34,-26.15 -17.61,-6.14 -32.92,-5.17 -45.96,2.89 -23.04,14.19 -34.32,31.53 -33.84,52.11 0.43,17.8 7.89,37.91 22.25,60.41l-22.39 13.78 19.08 30.91 22.39 -13.78 92.69 150.28 29.85 -18.43 -92.69 -150.27z"/>
   <path id="8" class="fil3" d="M1407.03 596.73c18.33,-2.07 35.83,1.13 52.51,9.65 17.68,9.23 29.5,22.18 35.53,38.85 7.44,20.46 8.62,38.01 3.59,52.67 -4.74,13.24 -15.21,25.94 -31.48,38.12l-12.05 -33.34c7.22,-7.92 11.06,-15.25 11.65,-21.99 0.42,-5.14 -1.3,-13 -5.08,-23.47 -3.78,-10.41 -12.06,-17.74 -24.89,-21.94 -11.95,-3.73 -23.6,-3.56 -34.89,0.58 -11.59,4.13 -20.82,11.7 -27.68,22.63 -6.87,10.88 -8.41,21.57 -4.62,32.04 3.72,10.22 7.5,17.26 11.41,21.17 4.85,5.03 12.42,8.22 22.7,9.52l12.12 33.4c-20.52,1.12 -36.73,-1.96 -48.61,-9.24 -13.48,-7.98 -23.88,-22.17 -31.27,-42.63 -6.03,-16.67 -5.14,-34.23 2.79,-52.67 7.34,-17.26 18.64,-30.91 33.89,-40.9l-9.1 -25.01 -71.69 25.93 -12.23 -33.7 192.86 -69.76 12.18 33.7 -86.77 31.36 9.1 25.01z"/>
   <path id="9" class="fil3" d="M1863.06 542.52l-20.72 175.27 -36.91 -4.33 9.92 -84.09 -67.32 -7.96c-5.52,14.56 -11.03,29.12 -16.55,43.74 -7.93,18.76 -18.49,27.42 -31.68,25.87 -6.33,-0.75 -11.72,-3.81 -16.23,-9.06 -4.51,-5.31 -6.36,-11.21 -5.61,-17.83 0.75,-6.33 3.09,-12.96 6.98,-19.83 3.83,-5.98 7.65,-12.08 11.48,-18.3 10.6,-17.29 16.98,-37.59 19.28,-60.88 2.65,-26.31 1.6,-39.79 -3.07,-40.31l-30.94 -3.69 4.15 -35.48 212.02 25.04 -4.21 35.48 -30.58 -3.63zm-36.91 -4.33l-74.07 -8.77c1.08,6.56 1.82,16.43 2.15,29.61 0.27,11.7 0.13,20.75 -0.39,27.07l65.72 7.79 6.58 -55.7z"/>
   <path id="10" class="fil3" d="M2132.11 666.71l-32.86 -17.59c-7.28,11.11 -13.92,19.2 -19.9,24.33 -10.3,8.68 -20.41,15.05 -30.35,19.12 3.06,12.89 2.87,24.71 -0.51,35.53 -1.25,4.43 -3.56,9.63 -6.76,15.65 -9.6,18.43 -25.05,28.94 -46.28,31.52 -18.87,2.22 -38.31,-1.99 -58.35,-12.72 -12.53,-6.69 -24.57,-19.71 -36.2,-39.11 -10.92,-18.69 -14.34,-29.63 -10.19,-32.82 1.3,-0.89 3.37,-0.59 6.32,1.01 2.72,1.42 9.98,7.58 21.86,18.53 13.41,12.49 22.93,20.24 28.54,23.26 12.35,6.57 23.53,9.78 33.58,9.5 12.77,0.19 22.18,-5.35 28.22,-16.64 2.91,-5.38 3.98,-12.88 3.17,-22.4 -22.54,6 -41.35,5.33 -56.54,-1.96 -17.32,-8.77 -28.54,-19.84 -33.61,-33.32 -4.43,-11.83 -3.64,-23.35 2.41,-34.58 6.58,-12.35 16.94,-20.38 31.01,-24.15 15.26,-3.94 30.69,-0.91 46.3,9.04 17.31,11.19 28.48,24.45 33.43,39.76 3.43,-1.42 9.35,-5.19 17.76,-11.39 5.26,-3.84 9.59,-9.15 12.97,-15.95l-119.21 -63.74 16.95 -31.55 185.17 99.11 -16.89 31.55zm-147.7 -21.09c-15.01,-8.06 -24.83,-7.77 -29.39,0.8 -2.72,5.08 -2.19,9.87 1.52,14.42 3.72,4.56 9.28,8.23 16.6,11.07 7.74,3.08 17.62,2.68 29.57,-1.15 -2.18,-11.41 -8.26,-19.81 -18.31,-25.14z"/>
   <path id="11" class="fil3" d="M2392.59 908.52l-132.51 117 -24.54 -27.78 63.4 -55.99 -44.83 -50.74c-13.87,7.15 -27.69,14.31 -41.49,21.46 -18.43,8.72 -32.03,8.13 -40.8,-1.78 -4.24,-4.81 -6.22,-10.67 -6.07,-17.65 0.2,-6.91 2.78,-12.57 7.76,-16.99 4.75,-4.18 10.91,-7.58 18.44,-10.15 6.87,-1.92 13.74,-3.96 20.72,-6.06 19.48,-5.83 37.86,-16.69 55.08,-32.51 19.59,-17.89 27.8,-28.61 24.69,-32.17l-20.66 -23.38 26.72 -23.59 141.34 159.99 -26.71 23.59 -20.54 -23.26zm-24.54 -27.77l-49.31 -55.79c-3.63,5.67 -9.7,13.5 -18.32,23.63 -7.67,8.95 -13.84,15.67 -18.47,20.08l43.72 49.49 42.39 -37.41z"/>
   <path id="12" class="fil3" d="M2457.98 840.27c-1.43,7.09 -8.01,15.95 -19.73,26.57 -7.46,7.2 -12.67,9.09 -15.44,5.59 -2.54,-3.13 -2.12,-8.34 1.26,-15.61 2.13,-4.78 4.33,-9.75 6.7,-14.94 0,-2.19 -2.83,-7.04 -8.56,-14.5 -3.54,-4.43 -7.2,-8.93 -10.86,-13.55 -12.93,-17.16 -20.13,-27.22 -21.66,-30.23 -3.13,-5.39 -3.83,-11.18 -2.29,-17.26 1.61,-6.15 6.46,-13.23 14.63,-21.32 3.38,-3.3 7.76,-6.37 13.08,-9.2 6.63,-3.48 10.89,-4.06 12.78,-1.7 3.54,4.38 2,11.18 -4.58,20.39 -2.55,3.31 -5.16,7.03 -7.82,11.28 0.06,2.72 2.47,7.28 7.37,13.66 3.43,4.26 6.91,8.58 10.45,13.02 5.61,7.33 11.28,14.73 17,22.25 6.5,10 9.08,18.51 7.66,25.55z"/>
   <path id="13" class="fil3" d="M2543.11 1122.59l-18.28 -27.89c-16,5.4 -33.04,6.24 -51.05,2.47 -1.39,22.98 -11.13,39.12 -29.33,48.53 -16.31,8.41 -32.47,10.09 -48.46,5.03 -11.1,-3.5 -21.81,-11.43 -32.26,-23.85 -2.47,7.85 -5.58,13.03 -9.32,15.49 -4.81,3.11 -8.59,2.49 -11.46,-1.84 -2.81,-4.33 -4.49,-10.96 -4.96,-19.83 -0.42,-8.93 0.04,-15.54 1.48,-19.85 2.59,-7.67 2.17,-16.13 -1.39,-25.37 -3.72,-10.02 -5.39,-16.23 -5.08,-18.77 0.93,-7.62 4.28,-13.33 9.98,-17.14 5.34,-3.45 11.5,-4.6 18.41,-3.31 6.91,1.23 12.04,4.45 15.44,9.61 2.58,3.92 3.5,8.54 2.76,13.85 -2.88,17.19 -2.65,28.3 0.74,33.46 0.47,0.77 0.94,1.25 1.24,1.31 2.41,3.2 8.11,8.68 17.11,16.36 11.25,7.57 20.83,8.4 28.73,2.36 5.65,-4.28 8.82,-10.76 9.52,-19.39 0.7,-8.68 -1.73,-16.38 -7.31,-23.16 -13.22,-13.68 -27.21,-28.13 -42.02,-43.35 -2.99,-3.69 -4.19,-11.26 -3.7,-22.78 0.54,-11.52 2.89,-18.6 7.05,-21.35 2.98,-1.94 6.33,-0.2 10.2,5.2l24.05 32.13c-0.76,-11.12 -0.35,-21.28 1.25,-30.5 1.59,-9.21 5.43,-18.41 11.64,-27.54l-12.07 -18.39 29.93 -19.62 117.12 178.53 -29.93 19.62zm-39.9 -60.78l-42.6 -64.99c-3.28,5.01 -4.92,11.74 -5.03,20.25 -0.28,16.02 1.31,26.72 4.83,32.07 4.4,6.71 10.46,10.94 18.14,12.7 5.61,1.16 13.83,1.15 24.66,-0.03z"/>
   <path id="14" class="fil3" d="M2584.96 1218.28l-12.85 -26.35 -158.92 77.5 -15.52 -31.7 158.92 -77.5 -13.95 -28.61 32.43 -15.8 13.94 28.61c15.92,-7.79 25.84,-13.56 29.78,-17.3 10.67,-9.37 13.06,-20.17 7.14,-32.22 -5.81,-11.87 -14.46,-16.97 -26.01,-15.3 -1.89,0.4 -7.94,2.06 -18.14,4.93l-13.94 -28.67c2.32,-1.63 4.64,-3.04 7.02,-4.19 12.94,-6.33 27.15,-7.69 42.56,-4.19 18.12,4.29 30.58,13.38 37.32,27.15 12.03,24.7 12.33,45.57 1,62.67 -9.83,14.81 -26.91,27.73 -51.2,38.81l12.85 26.35 -32.42 15.8z"/>
   <path id="15" class="fil3" d="M2701.72 1508.87l-113.54 36.9c-14.84,4.79 -28.56,4.67 -41.16,-0.41 -14.67,-6.21 -24.9,-18.15 -30.63,-35.94 -7.98,-24.47 -3.91,-50.54 12.23,-78.15 13.25,-22.7 28.74,-36.95 46.48,-42.69 12.83,-4.2 24.3,-3.43 34.48,2.24 10.17,5.61 17.21,14.48 21.17,26.66l8.34 25.59 -34.71 11.3c-5.44,-16.61 -8.05,-24.71 -7.93,-24.29 -2.55,-4.85 -6.75,-6.21 -12.54,-4.14 -11.65,4.56 -21.17,15.2 -28.38,31.99 -6.98,15.9 -8.87,28.91 -5.56,39.01 4.2,13.07 13.07,17.38 26.56,13l113.54 -36.9 -41.65 -128.04 34.06 -11.06 65.67 201.93 -34.06 11.06 -12.36 -38.07z"/>
   <path id="16" class="fil3" d="M2791.34 1477.58c-4.08,5.97 -13.6,11.59 -28.62,16.91 -9.76,3.78 -15.26,3.49 -16.5,-0.77 -1.13,-3.84 1.36,-8.51 7.33,-13.89 3.85,-3.55 7.87,-7.27 12.12,-11.17 0.89,-1.95 0.12,-7.51 -2.25,-16.67 -1.6,-5.5 -3.2,-11.05 -4.79,-16.73 -5.27,-20.93 -8.05,-33.04 -8.23,-36.41 -0.83,-6.2 0.7,-11.82 4.55,-16.85 3.85,-5.02 11.06,-9.7 21.65,-13.95 4.38,-1.78 9.57,-2.9 15.61,-3.37 7.45,-0.65 11.59,0.47 12.42,3.43 1.54,5.44 -2.43,11.11 -12,17.03 -3.6,2.01 -7.39,4.43 -11.47,7.33 -1,2.48 -0.53,7.63 1.48,15.43 1.54,5.26 3.02,10.58 4.62,16.02 2.31,8.98 4.67,18.03 7.04,27.19 2.13,11.7 1.13,20.51 -2.95,26.48z"/>
   <path id="17" class="fil3" d="M2730.46 1610.71l13.76 55.03 35.12 -8.84 -13.77 -54.96c17.2,-4.33 28.56,-6.41 33.94,-6.3 14.31,0.52 23.07,7.37 26.33,20.44 3.27,12.82 -0.1,22.34 -10.03,28.44 -1.71,0.95 -7.39,3.55 -17.02,7.93l7.71 30.97c2.91,-0.24 5.56,-0.71 8.1,-1.31 14.02,-3.5 25.78,-11.67 35.29,-24.5 11.17,-14.9 14.88,-29.8 11.14,-44.7 -6.58,-26.3 -19.72,-42.31 -39.48,-48.02 -17.15,-4.95 -38.62,-3.93 -64.51,3.01l-6.35 -25.53 -35.12 8.78 6.35 25.54 -171.34 42.88 8.54 34.04 171.34 -42.89z"/>
   <path id="18" class="fil3" d="M2778.36 1837.8l-74.82 13.76c-0.84,-4.43 -1.93,-11.63 -3.39,-21.56 -1.4,-9.98 -2.61,-17.49 -3.51,-22.63 -3.08,-16.48 -7.21,-29.47 -12.57,-38.79 -3.57,-6.31 -10.52,-14.09 -20.84,-23.21 -10.33,-9.18 -16.02,-13.06 -16.96,-11.7 -3.23,5.93 -8.57,16.76 -15.96,32.57 -4.8,11.78 -6.77,24.91 -5.77,39.39 0.57,8.39 7.11,17.71 19.56,28.06 12.52,10.36 18.99,16.72 19.41,19.08 0.72,3.96 -1.69,6.45 -7.31,7.48 -8.33,1.51 -19.17,-2.17 -32.51,-11.05 -13.28,-8.88 -21.89,-18.24 -25.89,-28.1 -2.2,-2.71 -3.94,-7.73 -5.27,-14.94 -3.92,-21.2 -1.34,-41.79 7.76,-61.74 9.91,-22.09 20.31,-37.85 31.34,-47.35 1.59,-1.96 3.72,-3.21 6.55,-3.75 10.22,-1.87 23.96,3.81 41.34,16.93 8.37,6.41 15.9,12.82 22.61,19.3 3.94,-6.28 10.41,-15.41 19.53,-27.38 4,-4.33 8.54,-7.9 13.56,-10.63 5.02,-2.74 9.98,-5.36 14.76,-7.92l-4.05 -21.98 35.1 -6.45 38.46 209.18 -35.1 6.46 -6.04 -33.02zm-6.89 -37.22l-14.61 -79.69c-4.61,2.33 -9.96,7.25 -16.03,14.9 -9.07,12.03 -14.17,23.17 -15.43,33.52 -0.51,4.91 1.85,17.72 7.07,38.45l39 -7.18z"/>
   <path id="19" class="fil3" d="M2825.25 1957.16l-215.48 15.86 -2.76 -37.62 215.49 -15.86 2.76 37.62zm5.2 70.61l-215.49 15.86 -2.76 -37.62 215.49 -15.86 2.76 37.61z"/>
   <rect class="fil4" x="1096.35" y="2844.08" width="1127.89" height="455.69"/>
   <path class="fil5" d="M1103.15 3293.32l1114.3 0 0 -442.79 -1114.3 0 0 442.79zm1121.09 12.91l-1134.68 0 0 -468.6 1141.48 0 0 468.6 -6.8 0z"/>
   <path class="fil4" d="M1658.29 2829.94c87.92,-55.34 175.98,-93.21 263.81,-90.32 89.11,2.93 175.94,46.42 263.92,107.48 0,74.91 0,149.81 0,224.66 0,74.85 0,149.76 0,224.55 -87.97,-56.08 -175.19,-95.18 -263.92,-95.27 -88.12,-0.09 -175.89,38.71 -263.81,94.5 0,-77.56 0,-155.18 0,-232.74 0,-77.56 0,-155.24 0,-232.86z"/>
   <path class="fil5" d="M1654.55 2824.58c44.36,-27.92 88.8,-51.45 133.27,-67.65 44.76,-16.31 89.6,-25.2 134.49,-23.73 45.54,1.5 90.37,13.3 134.96,32.5 44.31,19.07 88.41,45.44 132.75,76.22l2.79 1.93 0 464.55 -10.56 -6.73c-43.62,-27.81 -87.02,-51.39 -130.43,-68 -43.14,-16.51 -86.3,-26.14 -129.72,-26.19 -43.14,-0.04 -86.3,9.47 -129.49,25.84 -43.43,16.47 -86.94,39.91 -130.55,67.58l-10.56 6.7 0 -481.1 3.05 -1.92zm138.09 -55.61c-42.48,15.48 -85.02,37.85 -127.56,64.43l0 450.19c40.79,-25.25 81.61,-46.7 122.54,-62.22 44.7,-16.95 89.5,-26.8 134.47,-26.75 45.31,0.05 90.13,10.01 134.76,27.09 40.84,15.63 81.55,37.22 122.36,62.61l0 -433.95c-42.68,-29.45 -85.07,-54.66 -127.52,-72.93 -43.09,-18.55 -86.24,-29.95 -129.81,-31.39 -42.93,-1.41 -86.04,7.19 -129.24,22.93z"/>
   <path class="fil5" d="M1682.91 2852.13c71.69,-40.52 144.56,-62.22 218.72,-62.93 74.16,-0.71 149.55,19.55 226.29,62.93l-3.1 4.96c-75.74,-42.81 -150.09,-62.81 -223.14,-62.11 -73.05,0.7 -144.9,22.12 -215.67,62.11l-3.1 -4.96z"/>
   <path class="fil5" d="M1682.91 2911.97c71.69,-40.52 144.56,-62.21 218.72,-62.93 74.16,-0.71 149.55,19.55 226.29,62.93l-3.1 4.97c-75.74,-42.81 -150.09,-62.82 -223.14,-62.11 -73.05,0.7 -144.9,22.11 -215.67,62.11l-3.1 -4.97z"/>
   <path class="fil5" d="M1682.91 2971.81c71.69,-40.52 144.56,-62.22 218.72,-62.93 74.16,-0.71 149.55,19.55 226.29,62.93l-3.1 4.97c-75.74,-42.81 -150.09,-62.82 -223.14,-62.11 -73.05,0.7 -144.9,22.11 -215.67,62.11l-3.1 -4.97z"/>
   <path class="fil5" d="M1682.91 3031.66c71.69,-40.52 144.56,-62.22 218.72,-62.93 74.16,-0.71 149.55,19.55 226.29,62.93l-3.1 4.97c-75.74,-42.81 -150.09,-62.82 -223.14,-62.11 -73.05,0.7 -144.9,22.11 -215.67,62.11l-3.1 -4.97z"/>
   <path class="fil5" d="M1682.91 3091.5c71.69,-40.52 144.56,-62.22 218.72,-62.93 74.16,-0.71 149.55,19.55 226.29,62.93l-3.1 4.97c-75.74,-42.81 -150.09,-62.82 -223.14,-62.11 -73.05,0.7 -144.9,22.11 -215.67,62.11l-3.1 -4.97z"/>
   <path class="fil5" d="M1682.91 3151.34c71.69,-40.52 144.56,-62.22 218.72,-62.93 74.16,-0.71 149.55,19.55 226.29,62.93l-3.1 4.97c-75.74,-42.82 -150.09,-62.82 -223.14,-62.11 -73.05,0.7 -144.9,22.11 -215.67,62.11l-3.1 -4.97z"/>
   <path class="fil5" d="M1682.91 3211.19c71.69,-40.52 144.56,-62.22 218.72,-62.93 74.16,-0.72 149.55,19.55 226.29,62.93l-3.1 4.96c-75.74,-42.81 -150.09,-62.81 -223.14,-62.11 -73.05,0.7 -144.9,22.11 -215.67,62.11l-3.1 -4.96z"/>
   <polygon class="fil5" points="2179.26,2846.24 2179.26,3280.31 2173.14,3280.31 2173.14,2846.24 "/>
   <polygon class="fil5" points="2167.17,2842.41 2167.17,3276.49 2161.06,3276.49 2161.06,2842.41 "/>
   <polygon class="fil5" points="2155.09,2834.92 2155.09,3269 2148.97,3269 2148.97,2834.92 "/>
   <polygon class="fil5" points="2143,2827.44 2143,3261.52 2136.89,3261.52 2136.89,2827.44 "/>
   <path class="fil4" d="M1662.3 2829.94c-87.92,-55.34 -175.98,-93.21 -263.81,-90.32 -89.11,2.93 -175.94,46.42 -263.91,107.48 0,74.91 0,149.81 0,224.66 0,74.85 0,149.76 0,224.55 87.97,-56.08 175.19,-95.18 263.91,-95.27 88.13,-0.09 175.89,38.71 263.81,94.5 0,-77.56 0,-155.18 0,-232.74 0,-77.56 0,-155.24 0,-232.86z"/>
   <path class="fil5" d="M1655.51 2833.4c-42.54,-26.57 -85.08,-48.95 -127.56,-64.43 -43.21,-15.74 -86.32,-24.33 -129.24,-22.93 -43.57,1.43 -86.71,12.84 -129.81,31.39 -42.45,18.28 -84.84,43.48 -127.53,72.93l0 433.95c40.81,-25.39 81.52,-46.98 122.36,-62.61 44.63,-17.08 89.45,-27.04 134.76,-27.09 44.98,-0.04 89.77,9.8 134.48,26.75 40.93,15.52 81.74,36.97 122.54,62.22l0 -450.19zm-122.73 -76.48c44.47,16.2 88.91,39.73 133.27,67.65l3.05 1.92 0 481.1 -10.56 -6.7c-43.6,-27.67 -87.11,-51.11 -130.55,-67.58 -43.19,-16.37 -86.34,-25.89 -129.49,-25.84 -43.42,0.04 -86.58,9.68 -129.72,26.19 -43.41,16.61 -86.81,40.19 -130.43,68l-10.56 6.73 0 -464.55 2.78 -1.93c44.35,-30.78 88.44,-57.15 132.75,-76.22 44.59,-19.19 89.42,-31 134.96,-32.5 44.89,-1.47 89.73,7.43 134.49,23.73z"/>
   <path class="fil5" d="M1634.59 2857.1c-70.77,-40 -142.62,-61.41 -215.67,-62.11 -73.06,-0.7 -147.4,19.3 -223.14,62.11l-3.1 -4.96c76.74,-43.38 152.13,-63.65 226.29,-62.93 74.17,0.72 147.03,22.41 218.72,62.93l-3.1 4.96z"/>
   <path class="fil5" d="M1634.59 2916.94c-70.77,-40 -142.62,-61.41 -215.67,-62.11 -73.06,-0.7 -147.4,19.3 -223.14,62.11l-3.1 -4.97c76.74,-43.38 152.13,-63.64 226.29,-62.93 74.17,0.72 147.03,22.41 218.72,62.93l-3.1 4.97z"/>
   <path class="fil5" d="M1634.59 2976.78c-70.77,-40 -142.62,-61.41 -215.67,-62.11 -73.06,-0.7 -147.4,19.3 -223.14,62.11l-3.1 -4.97c76.74,-43.38 152.13,-63.64 226.29,-62.93 74.17,0.71 147.03,22.41 218.72,62.93l-3.1 4.97z"/>
   <path class="fil5" d="M1634.59 3036.63c-70.77,-40 -142.62,-61.41 -215.67,-62.11 -73.06,-0.7 -147.4,19.3 -223.14,62.11l-3.1 -4.97c76.74,-43.38 152.13,-63.64 226.29,-62.93 74.17,0.71 147.03,22.41 218.72,62.93l-3.1 4.97z"/>
   <path class="fil5" d="M1634.59 3096.47c-70.77,-40 -142.62,-61.41 -215.67,-62.11 -73.06,-0.7 -147.4,19.3 -223.14,62.11l-3.1 -4.97c76.74,-43.38 152.13,-63.64 226.29,-62.93 74.17,0.71 147.03,22.41 218.72,62.93l-3.1 4.97z"/>
   <path class="fil5" d="M1634.59 3156.31c-70.77,-40 -142.62,-61.41 -215.67,-62.11 -73.06,-0.7 -147.4,19.3 -223.14,62.11l-3.1 -4.97c76.74,-43.38 152.13,-63.64 226.29,-62.93 74.17,0.71 147.03,22.41 218.72,62.93l-3.1 4.97z"/>
   <path class="fil5" d="M1634.59 3216.15c-70.77,-40 -142.62,-61.41 -215.67,-62.11 -73.06,-0.7 -147.4,19.3 -223.14,62.11l-3.1 -4.96c76.74,-43.38 152.13,-63.65 226.29,-62.93 74.17,0.71 147.03,22.41 218.72,62.93l-3.1 4.96z"/>
   <polygon class="fil5" points="1147.45,2846.24 1147.45,3280.31 1141.33,3280.31 1141.33,2846.24 "/>
   <polygon class="fil5" points="1159.54,2842.41 1159.54,3276.49 1153.42,3276.49 1153.42,2842.41 "/>
   <polygon class="fil5" points="1171.62,2834.92 1171.62,3269 1165.51,3269 1165.51,2834.92 "/>
   <polygon class="fil5" points="1183.71,2827.44 1183.71,3261.52 1177.59,3261.52 1177.59,2827.44 "/>
   <path class="fil1" d="M1669.28 3989.66c-625.19,0 -1154.42,-584.06 -1332.4,-1389.28l0 1149.7c331.07,510.45 805.47,830.21 1332.4,830.21 516.6,0 982.71,-307.34 1312.76,-800.42l0 -1097.09c-194.92,762.36 -709.11,1306.89 -1312.76,1306.89z"/>
   <path class="fil2" d="M1669.28 4009.37c-314.26,0 -604.39,-144.6 -839.2,-389.44 -209.15,-218.08 -374.41,-515.9 -473.47,-861.75l0 986.15c166.52,255.38 369.2,462.16 596.39,603.72 219.35,136.67 461.64,212.52 716.29,212.52 249.69,0 487.46,-72.9 703.35,-204.53 223.54,-136.3 423.76,-335.53 589.69,-582.07l0 -950.43c-104.84,331.53 -271.46,615.41 -479.1,822.13 -230.24,229.21 -510.87,363.7 -813.94,363.7zm-810.86 -416.7c227.48,237.19 507.85,377.27 810.86,377.27 292.17,0 563.28,-130.22 786.21,-352.15 230.48,-229.45 409.51,-556.79 507.45,-939.87l38.83 4.85 0 1097.09 -3.39 10.93c-169.76,253.6 -375.32,458.61 -605.25,598.81 -222.08,135.41 -466.78,210.39 -723.85,210.39 -262.22,0 -511.54,-77.99 -737.09,-218.53 -233.55,-145.52 -441.52,-358.17 -611.79,-620.69l-3.24 -10.7 0 -1149.7 38.9 -4.24c89.33,404.15 267.72,751.87 502.36,996.54z"/>
   <path class="fil2" d="M556.06 3569.35l19 25.56 16.41 -12.18 -19 -25.56c8.04,-5.97 13.48,-9.51 16.31,-10.62 7.57,-2.8 13.61,-1.17 18.14,4.91 4.44,5.98 4.75,11.65 0.88,16.98 -0.7,0.85 -3.09,3.46 -7.17,7.81l10.72 14.42c1.44,-0.74 2.76,-1.55 3.94,-2.43 6.54,-4.85 10.88,-11.66 13.05,-20.38 2.56,-10.22 1.26,-18.78 -3.89,-25.72 -9.14,-12.3 -19.48,-17.8 -31.02,-16.55 -9.98,1.13 -20.96,6.29 -32.91,15.5l-8.84 -11.9 -16.41 12.19 8.84 11.89 -80.09 59.49 11.95 16.07 80.09 -59.48zm83.13 105.16l-77.65 62.63 -13.21 -16.36 37.27 -30.06 -24.04 -29.77c-7.99,3.7 -15.99,7.41 -23.98,11.11 -10.64,4.47 -18.31,3.8 -23.01,-2.02 -2.26,-2.81 -3.26,-6.17 -2.98,-10.07 0.27,-3.91 1.87,-7.04 4.78,-9.39 2.81,-2.26 6.37,-4.02 10.67,-5.27 3.9,-0.91 7.85,-1.87 11.85,-2.87 11.13,-2.8 21.76,-8.46 31.88,-16.96 11.48,-9.6 16.37,-15.44 14.69,-17.52l-11.07 -13.71 15.75 -12.7 75.74 93.83 -15.75 12.7 -10.95 -13.56zm-13.21 -16.37l-26.42 -32.73c-2.14,3.09 -5.73,7.36 -10.78,12.81 -4.5,4.83 -8.12,8.44 -10.84,10.8l23.41 28.99 24.63 -19.87zm32.13 -15.09c-3.74,-4.17 -6.07,-9.17 -6.98,-14.99 -0.75,-5.24 -0.29,-10.13 1.38,-14.67 1.23,-3.43 3.98,-7.06 8.26,-10.89 4.28,-3.83 7.35,-4.7 9.22,-2.61 0.98,1.09 0.78,3.16 -0.63,6.2 -1.07,2.21 -2.18,4.37 -3.34,6.48 -3.32,7.1 -2.22,13.73 3.3,19.9 4.01,4.48 7.95,6.87 11.81,7.17 2.83,0.16 7,-0.98 12.53,-3.42 4.26,-1.85 7.06,-2.02 8.4,-0.53 1.87,2.09 0.67,5.05 -3.61,8.88 -4.28,3.83 -8.19,6.17 -11.74,7.02 -4.7,1.16 -9.61,1.07 -14.74,-0.24 -5.6,-1.44 -10.22,-4.2 -13.88,-8.28zm53.17 111.33l-74.33 66.54 -14.04 -15.67 19.4 -17.37c-9.74,-3.47 -17.02,-7.89 -21.83,-13.26 -7.13,-7.96 -11.72,-17.48 -13.76,-28.55 -1.67,-9.26 -1.25,-15.91 1.24,-19.93 0.02,-0.38 0.28,-0.79 0.78,-1.23 1.8,-1.61 7.19,-4.19 16.18,-7.76 9.57,-3.73 15.39,-6.34 17.46,-7.83 2.07,-1.5 4,-3.04 5.79,-4.65 4.87,-4.36 7.63,-8.18 8.29,-11.46l-11.09 -12.38 15.07 -13.5 15.64 17.45c5.08,5.67 4.62,13.17 -1.38,22.48 -2.78,4.1 -6.12,7.99 -10.01,11.65l24.33 27.15 23.29 -20.85 28.74 32.08 -15.07 13.5 -14.7 -16.41zm-37.02 4.91l-25.8 -28.79c-3.5,1.7 -10.23,4.59 -20.2,8.68 -0.17,8.22 3.44,16.45 10.84,24.71 2.41,2.69 9,5.74 19.79,9.17l15.37 -13.76zm116.94 69.2l23.75 21.23 13.62 -15.22 -23.74 -21.23c6.67,-7.46 11.3,-12.02 13.85,-13.68 6.86,-4.26 13.1,-3.87 18.75,1.18 5.56,4.96 6.99,10.46 4.28,16.45 -0.52,0.98 -2.33,4.01 -5.45,9.09l13.39 11.98c1.26,-1.01 2.39,-2.07 3.37,-3.17 5.43,-6.07 8.31,-13.61 8.69,-22.59 0.46,-10.52 -2.53,-18.65 -8.97,-24.42 -11.43,-10.21 -22.65,-13.54 -33.71,-9.99 -9.55,3.11 -19.26,10.36 -29.13,21.78l-11.05 -9.88 -13.63 15.22 11.05 9.88 -66.53 74.34 14.93 13.35 66.52 -74.34zm102.2 86.31l-63.78 76.7 -16.18 -13.44 30.61 -36.81 -29.43 -24.46c-7.1,5.21 -14.22,10.41 -21.32,15.62 -9.56,6.47 -17.21,7.32 -22.96,2.54 -2.78,-2.3 -4.41,-5.4 -4.91,-9.29 -0.5,-3.89 0.44,-7.27 2.83,-10.15 2.39,-2.87 9.44,-7.22 21.13,-13.04 11.7,-5.81 21.09,-12.98 28.18,-21.51 5.89,-7.09 9.25,-11.33 10.07,-12.74 2.23,-3.52 2.22,-6.22 -0.04,-8.1l-13.56 -11.26 12.94 -15.56 18.26 15.17c8.48,7.04 8.85,17.08 1.14,30.11 -2.28,4.01 -8.25,11.81 -17.9,23.41l28.5 23.69 33.17 -39.89 29.58 24.58 -12.94 15.56 -13.4 -11.14zm101.52 68.48l-53.64 84.1 -17.73 -11.3 25.74 -40.36 -32.27 -20.56c-6.4,6.06 -12.8,12.11 -19.19,18.17 -8.67,7.62 -16.15,9.43 -22.45,5.41 -3.05,-1.94 -5.06,-4.81 -6.04,-8.6 -0.99,-3.8 -0.48,-7.27 1.54,-10.42 2.3,-3.6 8.19,-8.56 17.68,-14.86 9.49,-6.31 16.76,-12.92 21.8,-19.84 2.45,-3.34 5.26,-8.13 8.44,-14.33 4.13,-7.98 5.47,-12.43 4,-13.37l-14.86 -9.47 10.88 -17.06 101.7 64.81 -10.88 17.06 -14.7 -9.37zm-75.27 37.54c2.81,1.8 4.52,4.35 5.11,7.65 0.58,3.3 0.07,6.34 -1.54,9.11 -1.72,2.7 -4.26,4.38 -7.59,5.02 -3.34,0.64 -6.31,0.14 -8.9,-1.52 -2.81,-1.8 -4.57,-4.33 -5.24,-7.61 -0.68,-3.28 -0.15,-6.28 1.57,-8.98 1.68,-2.89 4.17,-4.62 7.48,-5.21 3.3,-0.59 6.34,-0.07 9.12,1.54zm57.53 -48.85l-35.48 -22.61c-2.69,9.69 -7.01,19.44 -12.96,29.27l31.42 20.03 17.02 -26.69zm86.45 69.32c7.7,7.03 12.82,15.69 15.36,25.96 2.63,10.93 1.5,20.78 -3.37,29.53 -5.98,10.73 -13.01,17.74 -21.11,21.04 -7.42,2.9 -16.73,3.15 -27.93,0.74l9.74 -17.5c6.03,0.15 10.59,-0.91 13.68,-3.16 2.35,-1.75 5.05,-5.37 8.1,-10.85 3.05,-5.48 3.09,-11.73 0.11,-18.73 -2.82,-6.46 -7.22,-11.35 -13.16,-14.66 -6.07,-3.38 -12.71,-4.51 -19.9,-3.39 -7.2,1.11 -12.32,4.42 -15.37,9.9 -2.99,5.37 -4.58,9.6 -4.78,12.7 -0.35,3.93 1.1,8.33 4.35,13.19l-9.74 17.5c-8.07,-8.3 -12.76,-16.34 -14.09,-24.11 -1.59,-8.68 0.61,-18.38 6.58,-29.12 4.87,-8.75 12.7,-14.86 23.5,-18.33 10.07,-3.26 20.07,-3.51 29.99,-0.74l7.31 -13.13 -37.64 -20.94 9.84 -17.68 101.2 56.29 -9.84 17.68 -45.52 -25.32 -7.31 13.13zm139.41 52.74l-29.46 59.84c-3.78,7.67 -8.87,13.34 -15.3,17.02 -7.74,4.53 -15.8,4.73 -24.19,0.6 -11.38,-5.6 -19.72,-17.33 -24.99,-35.18 -5.28,-17.85 -5.09,-32.53 0.57,-44.03 6.07,-12.34 16.9,-14.68 32.48,-7.01l33.62 16.54 8.41 -17.07 -60.4 -29.72 8.93 -18.15 101.21 49.8 -8.94 18.15 -21.93 -10.79zm-36.21 25.93l-30.02 -14.77c-2.88,-1.41 -4.73,-2.18 -5.57,-2.3 -2.15,-0.46 -3.58,0.32 -4.28,2.35 -1.81,5.51 -1.23,13.98 1.77,25.43 3.3,12.34 7.59,19.81 12.86,22.4 4.8,2.36 8.7,0.48 11.7,-5.63l13.54 -27.49zm106.7 0.12l-15.42 -6.21 -37.3 92.51 -18.58 -7.49 37.3 -92.51 -16.54 -6.67 7.64 -18.94 16.54 6.66c3.74,-9.28 5.73,-15.47 5.96,-18.54 0.91,-7.98 -2.13,-13.39 -9.16,-16.22 -6.9,-2.78 -12.48,-1.65 -16.65,3.44 -0.65,0.89 -2.57,3.86 -5.75,8.91l-16.67 -6.71c0.35,-1.58 0.8,-3.06 1.35,-4.43 3.04,-7.55 8.47,-13.5 16.27,-17.84 9.24,-5.06 17.89,-5.96 25.94,-2.72 14.37,5.79 22.41,14.43 24.12,25.91 1.46,9.94 -0.81,21.84 -6.83,35.69l15.43 6.21 -7.64 18.95zm156.59 42.26c-4.65,11.9 -8.64,20.51 -11.98,25.85 -5.09,8.33 -10.83,15.72 -17.23,22.19 2.4,7.67 4.01,15.48 4.82,23.43 0.7,6.81 1.07,10.91 1.12,12.3 0.27,4.22 0.28,8.64 0.03,13.26l-20.15 -5.3c-0.22,-3.37 -0.63,-8.38 -1.23,-15.02 -0.38,-3.28 -0.91,-6.8 -1.57,-10.56 -4.87,3.28 -9.71,5.67 -14.52,7.16 -3.48,1.15 -7.82,1.88 -13.01,2.17 -5.86,0.26 -10.54,-0.08 -14.03,-1 -7.46,-2.09 -13.13,-4.69 -17.01,-7.78 -4.46,-3.52 -8.09,-8.61 -10.9,-15.29 -3.21,-7.19 -3.79,-14.73 -1.72,-22.61 0.48,-1.81 1.11,-3.99 1.93,-6.54 4.06,-11.22 12.03,-18.93 23.9,-23.12 8.06,-2.85 16.94,-3 26.63,-0.46 5.3,1.39 9.8,3.47 13.49,6.24 7.1,5.04 12.28,11.09 15.52,18.16 3.39,-4.49 6.09,-8.3 8.09,-11.44 2,-3.13 4.55,-8.78 7.67,-16.94l-86.04 -22.61 5.15 -19.56 122.66 32.23 -5.15 19.57 -16.47 -4.33zm-50.03 42.15c-1.55,-5.66 -3.91,-10.35 -7.07,-14.08 -4.09,-4.94 -10.16,-8.12 -18.21,-9.55 -3.43,-0.62 -6.86,-0.15 -10.32,1.43 -4.11,1.96 -7.23,4.93 -9.39,8.92 -0.79,1.45 -1.37,2.88 -1.75,4.3 -1.09,4.13 -0.67,8.04 1.27,11.72 1.93,3.68 5.09,6.37 9.48,8.08 11.99,4.81 24,1.19 36,-10.83zm119.85 -30.84l-17.94 -3.22 -9.61 53.42 -18.34 -3.3 9.61 -53.42 -12.03 -2.16 3.58 -19.91 48.31 8.68 -3.58 19.91zm54.69 70.76l-1.8 -0.19 -13.33 -27.82c-5.61,2.22 -9.44,4.02 -11.47,5.42 -4.06,2.79 -6.3,6.17 -6.73,10.15 -1.01,9.43 0.91,16.48 5.78,21.17 2.06,2.1 5.93,4.19 11.62,6.28l-2.1 19.52c-13.56,-3.87 -23.03,-9.46 -28.43,-16.75 -5.88,-7.75 -8.06,-18.66 -6.55,-32.74 0.97,-9.02 5.34,-16.55 13.1,-22.56 3.53,-2.84 8.95,-5.75 16.26,-8.73l-8.78 -21.49 -23.9 -2.57 2.16 -20.11 127.09 13.65 -2.16 20.11 -26.7 -2.87 -13.12 18.94c7.25,5.07 12.24,9.17 15,12.29 6.71,7.57 9.58,15.87 8.61,24.9 -1.52,14.07 -5.79,24.19 -12.83,30.35 -7.04,6.16 -17.67,9.68 -31.87,10.57l2.1 -19.52c6,-0.83 10.3,-2.05 12.89,-3.65 5.62,-3.56 8.94,-10.05 9.95,-19.48 0.43,-3.98 -1.31,-7.8 -5.22,-11.44 -0.97,-0.91 -4.52,-3.51 -10.65,-7.8l-18.94 24.35zm20.77 -62.03l-29.48 -3.17 10.41 34.35 1 0.11 18.07 -31.3zm161.43 1.57l3.98 99.66 -20.63 0.82 -1.91 -47.83 -41.04 1.63 1.91 47.83 -21.42 0.85 -1.91 -47.83 -7.81 0.31c-5.19,0.47 -7.9,-2.06 -8.12,-7.6 -0.14,-3.43 0.71,-7.41 2.53,-11.93 1.83,-4.48 3.7,-7.67 5.63,-9.54 1.93,-1.85 4.8,-3.73 8.6,-5.59 4.33,-2.14 8.16,-3.3 11.49,-3.43 5.07,-0.2 7.71,2.33 7.92,7.6l0.38 9.51 41.04 -1.63 -1.28 -32.02 -81.08 3.23 -0.81 -20.21 119.72 -4.77 0.81 20.21 -18.02 0.72zm-37.97 73.67c3.34,-0.13 6.19,0.99 8.56,3.37 2.37,2.38 3.68,5.17 3.94,8.36 0.13,3.2 -1,6.02 -3.37,8.45 -2.37,2.43 -5.1,3.71 -8.17,3.83 -3.33,0.27 -6.21,-0.79 -8.65,-3.16 -2.44,-2.37 -3.72,-5.16 -3.84,-8.37 -0.27,-3.33 0.79,-6.18 3.17,-8.55 2.37,-2.36 5.17,-3.68 8.36,-3.94zm170.35 -128.85c-10.11,11.06 -16.78,20.91 -20.02,29.56 -5.5,14.52 -6.12,32.8 -1.88,54.82 3.31,17.18 7.58,30.84 12.8,40.98 9.33,18.06 22.93,30.39 40.8,37.01l-3.98 7.91c-18.25,-5.06 -33.92,-15.09 -47.02,-30.11 -12.89,-14.65 -21.14,-31.35 -24.75,-50.1 -3.41,-17.7 -1.79,-34.87 4.86,-51.52 6.65,-16.65 17.81,-31.65 33.46,-44.99l5.73 6.44zm89.7 20.37l16.96 64.5c2.17,8.27 2.04,15.89 -0.41,22.89 -2.87,8.48 -8.84,13.92 -17.88,16.3 -12.27,3.22 -26.25,-0.18 -41.94,-10.2 -15.69,-10.03 -25.16,-21.24 -28.42,-33.64 -3.5,-13.3 3.15,-22.16 19.94,-26.57l36.24 -9.52 -4.84 -18.41 -65.11 17.11 -5.15 -19.56 109.1 -28.67 5.14 19.57 -23.64 6.21zm-10.36 43.31l-32.36 8.5c-3.1,0.81 -5,1.45 -5.71,1.91 -1.93,1.06 -2.5,2.59 -1.69,4.59 2.24,5.35 8.24,11.37 18,18.05 10.58,7.16 18.72,9.99 24.4,8.5 5.17,-1.36 6.89,-5.33 5.15,-11.92l-7.79 -29.63zm76.55 -61.64l30.34 -9.72 -6.24 -19.45 -30.34 9.72c-3.06,-9.54 -4.65,-15.82 -4.79,-18.87 -0.2,-8.07 3.29,-13.25 10.51,-15.57 7.09,-2.27 12.56,-0.73 16.36,4.64 0.58,0.94 2.28,4.04 5.09,9.31l17.11 -5.48c-0.23,-1.61 -0.57,-3.11 -1.02,-4.51 -2.48,-7.75 -7.52,-14.06 -15.08,-18.93 -8.85,-5.72 -17.38,-7.26 -25.61,-4.62 -14.59,4.67 -23.15,12.67 -25.68,24 -2.15,9.81 -0.81,21.85 4.05,36.14l-14.12 4.52 6.24 19.45 14.12 -4.52 30.46 94.98 19.08 -6.11 -30.46 -94.98zm130.74 -47.78l38.39 92.06 -19.23 8.02 -18.42 -44.18 -37.73 15.72 18.42 44.19 -19.79 8.24 -18.42 -44.19c-1.97,0.82 -4.38,1.83 -7.22,3.01 -4.7,2.25 -8.12,0.81 -10.26,-4.3 -1.32,-3.17 -1.91,-7.19 -1.78,-12.06 0.16,-4.83 0.81,-8.48 1.97,-10.91 1.17,-2.41 3.2,-5.17 6.12,-8.23 3.31,-3.51 6.5,-5.93 9.58,-7.21 4.69,-1.95 8.04,-0.49 10.07,4.37l3.66 8.78 37.73 -15.72 -12.33 -29.58 -74.72 31.13 -7.78 -18.67 110.96 -46.23 7.78 18.67 -17.01 7.09zm34.5 -23.68c3.27,-1.52 6.68,-1.48 10.22,0.12 3.54,1.59 6.18,4.27 7.92,8.02 1.91,4.12 2,8.13 0.28,12.02 -1.4,3 -3.43,5.13 -6.1,6.37 -2.67,1.24 -5.6,1.42 -8.8,0.55 -3.91,-1.13 -6.85,-3.81 -8.81,-8.05 -1.75,-3.75 -2.09,-7.5 -1.02,-11.23 1.07,-3.73 3.18,-6.33 6.32,-7.79zm33.57 72.3c3.28,-1.52 6.68,-1.48 10.22,0.11 3.54,1.6 6.18,4.27 7.93,8.03 1.91,4.12 2,8.12 0.28,12.02 -1.35,3.12 -3.35,5.3 -6.02,6.54 -2.67,1.24 -5.63,1.36 -8.88,0.37 -3.97,-1.26 -6.91,-3.94 -8.82,-8.06 -1.74,-3.76 -2.08,-7.5 -1.02,-11.23 1.07,-3.73 3.17,-6.33 6.32,-7.79zm-20.88 -112.85l0.15 -8.62c20.58,-0.06 38.81,4.06 54.71,12.35 15.89,8.3 28.31,20.28 37.26,35.93 9.47,16.58 14.09,34.63 13.86,54.13 -0.16,19.93 -5.51,37.74 -16.07,53.46l-8.18 -3.41c9.25,-16.66 11.54,-34.88 6.85,-54.65 -2.65,-11.09 -8.31,-24.24 -16.99,-39.43 -11.13,-19.48 -23.51,-32.93 -37.14,-40.37 -8.09,-4.46 -19.57,-7.59 -34.44,-9.39zm219.67 -12.02l-1.46 1.05 -28.48 -11.87c-2.71,5.39 -4.36,9.28 -4.94,11.67 -1.17,4.78 -0.59,8.8 1.74,12.06 5.52,7.7 11.67,11.68 18.42,11.93 2.93,0.2 7.22,-0.82 12.85,-3.05l11.44 15.95c-12.69,6.13 -23.48,8.28 -32.37,6.44 -9.55,-1.87 -18.45,-8.55 -26.7,-20.05 -5.29,-7.38 -7.04,-15.9 -5.26,-25.56 0.74,-4.47 2.84,-10.24 6.3,-17.33l-20.86 -10.19 -19.54 14 -11.79 -16.44 103.89 -74.44 11.79 16.44 -21.83 15.63 2.84 22.86c8.78,-1.04 15.24,-1.31 19.37,-0.82 10.05,1.18 17.72,5.46 23.01,12.84 8.25,11.5 11.8,21.9 10.65,31.18 -1.15,9.29 -6.73,18.99 -16.72,29.11l-11.44 -15.96c3.93,-4.61 6.32,-8.38 7.18,-11.3 1.82,-6.4 -0.03,-13.45 -5.56,-21.15 -2.33,-3.26 -6.17,-4.94 -11.52,-5.06 -1.33,-0.03 -5.71,0.4 -13.13,1.28l2.1 30.78zm-25.83 -60.09l-24.11 17.27 30.66 18.69 0.81 -0.58 -7.37 -35.38zm58.8 103.05c8.03,-5.76 15.98,-14.16 23.83,-25.21l9.69 13.51c-2.31,2.97 -4.61,5.85 -6.88,8.62 -5.86,6.5 -11.63,11.87 -17.3,16.09 -7.85,5.79 -18.35,10.85 -31.51,15.19l-9.69 -13.51c13.43,-4.2 24.05,-9.09 31.86,-14.7zm1.25 -146.15l24.67 -20.16 -12.94 -15.81 -24.66 20.16c-6.34,-7.75 -10.13,-13.02 -11.37,-15.8 -3.14,-7.43 -1.8,-13.54 4.07,-18.33 5.76,-4.72 11.42,-5.28 16.92,-1.67 0.89,0.66 3.6,2.92 8.15,6.8l13.91 -11.37c-0.8,-1.41 -1.67,-2.68 -2.6,-3.82 -5.16,-6.3 -12.16,-10.32 -20.98,-12.09 -10.33,-2.08 -18.83,-0.39 -25.52,5.08 -11.87,9.7 -16.89,20.28 -15.09,31.74 1.59,9.91 7.26,20.63 17.02,32.14l-11.48 9.38 12.94 15.81 11.47 -9.38 63.17 77.21 15.51 -12.68 -63.17 -77.21zm118.51 -104.17l-14.11 13.06 67.77 73.2 -15.59 14.42 -16.06 -17.35c-3.59,9.5 -7.87,16.56 -12.87,21.19 -8.72,8.07 -19.65,13.17 -32.78,15.31 -11.79,1.81 -18.76,1.16 -20.91,-1.94 -0.91,-0.98 -2.65,-6.55 -5.24,-16.71 -2.58,-10.17 -6.33,-17.61 -11.26,-22.33 -2.19,-2.16 -4.37,-4.32 -6.55,-6.49 -3.56,-3.26 -6.03,-4.25 -7.4,-2.98l-11.32 10.48 -13.75 -14.85 86.33 -79.85 13.74 14.85zm-29.7 27.48l-28.82 26.66c5.53,3.62 9.35,6.36 11.45,8.24 8.96,7.91 14.75,19.47 17.37,34.69 10.48,0.31 19.74,-3.25 27.78,-10.69 2.45,-2.27 5.26,-8.87 8.43,-19.8l-36.2 -39.1zm114.06 -110.69l70.27 70.81 -14.51 14.39 -42.19 -42.52c-2.96,8.77 -3.7,16.08 -2.22,21.94 0.74,2.83 3.76,9.01 9.06,18.52 5.3,9.51 5.01,17.18 -0.87,23.01 -1.33,1.32 -3.04,2.54 -5.12,3.66 -5.68,3 -10.44,2.56 -14.3,-1.33 -4.52,-4.55 -6.99,-11.59 -7.42,-21.13 -0.26,-5.95 -0.63,-10.01 -1.08,-12.18 -1.03,-3.87 -3,-7.28 -5.91,-10.22 -0.85,-0.85 -1.79,-1.7 -2.82,-2.56 -9.6,-7.78 -15.26,-11.11 -16.96,-9.98 -1.04,0.65 -1.48,3.54 -1.31,8.63 0.17,5.1 0.34,10.3 0.5,15.58 0.42,12.94 2.84,22.11 7.26,27.5 3.94,4.93 5.81,9.94 5.61,15.04 -0.21,4.34 -1.83,8.02 -4.86,11.03 -2.75,2.72 -5.94,4.15 -9.58,4.28 -3.63,0.13 -6.82,-1.19 -9.55,-3.94 -3.67,-3.69 -5.96,-9.32 -6.87,-16.88 -0.54,-4.72 -1.24,-7.98 -2.08,-9.78 -0.94,-2.46 -3.05,-5.26 -6.34,-8.38 -2.44,-2.28 -6.73,-5.74 -12.85,-10.39 -3.02,-1.71 -5.14,-2.62 -6.36,-2.72 -1.7,-0.01 -3.5,0.93 -5.4,2.81l-6.54 6.49 -14.25 -14.36 12.8 -12.69c2.47,-2.44 6.48,-3.42 12.06,-2.92 4.25,0.3 7.83,1.07 10.76,2.31 5.75,2.76 11.4,6.66 16.95,11.68 -0.08,-4.63 0.04,-11.61 0.37,-20.96 0.11,-3.87 0.31,-7.74 0.62,-11.61 0.68,-5.38 2.02,-8.87 4.01,-10.46 4.07,-3.29 12.95,-2.02 26.62,3.79 3.11,1.24 8.39,4.57 15.83,9.98 1.35,-8.11 3.08,-14.43 5.17,-18.96l-27.23 -27.44 29.16 -28.91 14.25 14.36 -14.65 14.52zm52.17 -57.02l-12.27 13.48 40.15 36.54 -12.55 13.77 -40.15 -36.54 -8.23 9.03 -14.96 -13.62 33.05 -36.28 14.96 13.62zm22.87 -29.31l-18.07 22.74 -15.84 -12.58 76.02 -95.66 15.85 12.58 -41.5 52.22c2.57,-0.01 7.11,-1.76 13.65,-5.27 5.75,-2.94 10.9,-6.09 15.46,-9.46 3.66,-2.89 9.47,-7.31 17.44,-13.26l15.53 12.33c-4.23,2.95 -10.28,7.35 -18.17,13.2l21.33 16.94c2.09,1.66 2.64,3.12 1.64,4.37 -1.24,1.57 -5.64,3.03 -13.19,4.36 -8.2,1.51 -12.65,2.5 -13.35,2.96 -5.08,2.96 -8.78,5.9 -11.11,8.83 -1.67,2.09 -2.41,3.89 -2.24,5.39 0.35,3.85 0.7,7.71 1.04,11.57 0.61,6.11 1.43,9.58 2.48,10.41 0.21,0.17 0.36,0.2 0.44,0.09 0.17,0.65 0.46,1.14 0.88,1.47 2.71,2.16 9.69,-0.49 20.9,-7.96 8.56,-5.83 14.85,-10.63 18.88,-14.42 3.07,-3.01 6.24,-9.46 9.48,-19.33 3.47,-10.37 5.74,-16.24 6.82,-17.6 1.17,-1.46 2.27,-1.78 3.32,-0.95 2.82,2.24 3.73,9.53 2.72,21.85 -1.01,12.33 -3.76,21.31 -8.25,26.96 -6.06,7.63 -16.55,15.68 -31.46,24.13 -17.95,10.13 -29.82,11.87 -35.62,5.22 -2.33,-2.01 -4.75,-8.62 -7.27,-19.83 -2.52,-11.21 -3.39,-19.57 -2.59,-25.07 0.29,-2.5 2.42,-6.27 6.41,-11.28 1.5,-1.88 4.43,-4.07 8.8,-6.57 2.87,-1.47 5.65,-2.93 8.34,-4.38l-6.9 -5.48c-7.97,5.09 -16.17,8.65 -24.59,10.66 -0.19,0.02 -5.95,0.3 -17.3,0.84zm85.43 -114.19l-10.87 14.63 43.59 32.37 -11.11 14.95 -43.58 -32.37 -7.29 9.8 -16.24 -12.06 29.28 -39.39 16.24 12.06z"/>
   <path class="fil0" d="M1673.63 1154.82c13.86,22.56 35.96,52.88 66.31,90.99 32.96,31.5 64.81,58.33 95.53,80.49 -1.87,5.06 -7.5,19.44 -16.86,43.17 67.44,29.16 122.13,75.24 164.09,138.24 42.71,64.94 64.06,136.68 64.06,215.23 0,78.55 -21.73,150.3 -65.19,215.23 -42.33,63 -97.78,109.07 -166.33,138.24 9.74,24.5 18.73,45.89 26.98,64.16 -12.74,5.44 -32.59,15.56 -59.57,30.33 -16.11,10.11 -37.84,26.83 -65.19,50.16l0 95.66c72.31,-41.22 138.99,-89.24 200.06,-144.07 90.29,-81.66 149.1,-163.91 176.45,-246.73 25.48,-76.6 38.21,-143.3 38.21,-200.07 0,-47.83 -9.18,-90.6 -27.54,-128.32 -11.99,-24.5 -31.65,-52.3 -59,-83.41 -29.22,-33.05 -47.58,-56.39 -55.07,-69.99 69.31,21.39 127.37,64.55 174.2,129.49 51.7,71.94 77.55,155.35 77.55,250.23 0,35.39 -3.75,71.35 -11.24,107.91 -19.86,95.27 -51.52,178.88 -94.97,250.81 -34.46,48.22 -68.74,96.63 -102.83,145.24 -32.22,46.66 -48.33,93.13 -48.33,139.4l-144.98 -138.82c-10.49,3.11 -20.79,6.8 -30.91,11.08 -24.35,10.11 -45.14,22.36 -62.37,36.74 107.14,43.17 160.71,96.05 160.71,158.65 0,34.61 -14.42,51.91 -43.27,51.91 -9.74,0 -19.3,-2.92 -28.66,-8.75 -18.73,-12.06 -28.1,-27.61 -28.1,-46.67 0,-4.28 4.12,-20.22 12.36,-47.83 -38.96,-28.78 -73.8,-43.17 -104.52,-43.17l0 114.33c20.98,18.67 31.47,37.72 31.47,57.16 0,20.22 -7.31,37.52 -21.92,51.91 -14.61,14.39 -32.03,21.58 -52.26,21.58 -19.48,0 -36.34,-7.39 -50.57,-21.97 -14.24,-14.58 -21.35,-31.69 -21.35,-51.52 0,-17.89 10.49,-36.94 31.47,-57.16l0 -114.33c-30.72,0 -65.56,14.39 -104.52,43.17 8.24,27.61 12.36,43.55 12.36,47.83 0,19.06 -9.37,34.61 -28.09,46.67 -9.37,5.83 -18.92,8.75 -28.66,8.75 -28.85,0 -43.27,-17.3 -43.27,-51.91 0,-62.61 53.57,-115.49 160.72,-158.65 -25.85,-21.78 -56.94,-37.72 -93.28,-47.83l-144.98 138.82c0,-46.27 -15.92,-92.74 -47.76,-139.4 -34.09,-48.61 -68.19,-97.02 -102.27,-145.24 -43.46,-72.33 -75.11,-155.93 -94.97,-250.81 -7.87,-36.94 -11.8,-73.3 -11.8,-109.07 0,-94.88 25.85,-177.91 77.55,-249.06 47.2,-64.94 105.46,-108.1 174.76,-129.49 -29.97,36.16 -59.94,72.52 -89.91,109.07 -36.34,48.61 -54.51,105.19 -54.51,169.74 0,57.16 12.92,124.82 38.78,202.98 27.35,82.83 86.35,165.07 177.01,246.73 60.69,54.44 127.56,102.46 200.61,144.07l0 -95.66c-12.74,-11.28 -34.09,-28 -64.06,-50.16 -13.11,-8.56 -33.35,-18.67 -60.69,-30.33 4.12,-8.17 13.11,-30.33 26.97,-66.5 -66.31,-29.16 -120.07,-75.24 -161.28,-138.24 -42.33,-64.55 -63.5,-135.52 -63.5,-212.9 0,-76.22 20.79,-146.79 62.37,-211.73 40.46,-62.99 93.47,-109.85 159.03,-140.57 -6.37,-17.5 -11.99,-32.28 -16.85,-44.33 14.23,-9.72 46.07,-36.55 95.53,-80.49 9.37,-9.33 21.35,-24.89 35.96,-46.66 17.61,-26.06 27.72,-40.83 30.35,-44.33z"/>
   <path class="fil3" d="M1812.47 1701.4l-21.82 0c-3.03,11.36 -8.64,27.42 -16.83,48.18 -8.18,14.85 -21.37,28.18 -39.56,40 27.58,17.87 41.37,42.11 41.37,72.72 0,14.54 -5.61,29.54 -16.82,45 -15.16,20.6 -35.61,30.91 -61.38,30.91 -42.74,0 -73.58,-17.42 -92.52,-52.27 -12.43,-22.72 -22.2,-61.36 -29.33,-115.9 -3.19,-24.54 -3.79,-47.42 -1.82,-68.63l-22.28 0 0 -36.36 22.28 0c13.49,-70.44 51.76,-105.67 114.65,-105.67 7.28,0 14.85,0.53 22.73,1.59 17.66,2.27 36.3,8.63 56,19.09 0.98,0.52 2.01,1.07 3.07,1.66 7.47,-6.28 13.79,-11.26 18.98,-14.95 18.15,-12.96 35.79,-21.73 52.99,-26.31 7.67,-2.09 15.11,-3.61 22.32,-4.58 59,-7.86 100.31,18.47 123.79,78.99 -8.78,12.14 -20.62,16.09 -38.08,5.07 -17.6,-37.31 -44.95,-53.5 -82.04,-48.56 -4.36,0.58 -8.75,1.47 -13.18,2.67 -19.34,5.17 -37.37,14.17 -53.95,27.13 -2.34,1.83 -12.37,11.11 -26.74,24.42l-0 0c-7.93,-5.55 -12.64,-8.81 -14.36,-9.87 -17.91,-11.06 -37.21,-17.19 -57.06,-19.77 -4.55,-0.6 -9.02,-0.91 -13.41,-0.91 -40.77,0 -66.76,23.33 -77.98,69.99l200.96 0 0 36.36zm-355.1 -52.27c31.07,0.91 52.89,10.38 65.47,28.41 9.85,14.24 15,35.91 15.46,64.84 0.3,17.27 -0.46,33.71 -2.28,49.31 -1.82,16.74 -2.73,35.45 -2.73,56.2 0,45.6 10.46,79 31.37,100.06 0.6,1.81 0.91,3.48 0.91,5 0,5.61 -3.11,8.41 -9.32,8.41 -11.06,0 -22.28,-7.65 -33.65,-22.95 -14.25,-19.17 -23.11,-44.92 -26.6,-77.42 -1.81,-17.42 -1.52,-42.57 0.91,-75.52 -5.45,2.57 -10.99,4.85 -16.59,6.81 -13.19,4.85 -25.39,7.57 -36.6,8.18 -20.76,1.21 -39.71,-5.61 -56.91,-20.38 -17.2,-14.77 -26.29,-32.5 -27.2,-53.25 -1.06,-23.18 5.91,-41.66 20.91,-55.44 17.12,-15.91 42.74,-23.33 76.84,-22.27zm298.26 52.27l-144.13 0c-0.3,12.73 -0.3,24.54 0,35.45 0.3,9.24 1.52,22.27 3.64,39.09 10.15,1.36 20.54,2.04 31.14,2.04 20.31,0 35.85,-2.65 46.61,-7.95 6.06,-2.72 12.13,-5.45 18.19,-8.18 6.82,-3.33 11.98,-6.82 15.46,-10.45 11.82,-12.28 21.52,-28.94 29.1,-50zm-64.56 106.81c-18.04,2.42 -40.62,3.94 -67.75,4.54 1.21,18.03 4.4,33.41 9.55,46.13 12.28,30.61 33.19,45.37 62.75,44.31 13.64,-0.46 24.32,-5.07 32.05,-13.86 7.73,-8.79 10.99,-20.22 9.78,-34.31 -0.91,-11.06 -5.46,-21.51 -13.64,-31.36 -8.79,-10.46 -18.41,-15.68 -28.87,-15.68 -1.37,0 -2.65,0.07 -3.87,0.23zm-238.25 -122.71c-18.04,0 -32.2,3.78 -42.51,11.36 -10.3,7.57 -15.23,17.27 -14.78,29.09 0.45,11.97 6.21,21.66 17.28,29.09 9.85,6.67 21.22,10 34.1,10 11.06,0 21.9,-2.8 32.51,-8.41 14.25,-7.57 20.99,-18.1 20.23,-31.59 -1.06,-18.94 -8.64,-31.13 -22.73,-36.59 -5,-1.97 -13.03,-2.95 -24.1,-2.95z"/>
  </g>
 </g>
</svg>
