<?xml version="1.0" encoding="UTF-8"?>
<!DOCTYPE svg PUBLIC "-//W3C//DTD SVG 1.1//EN" "http://www.w3.org/Graphics/SVG/1.1/DTD/svg11.dtd">
<!-- Creator: CorelDRAW 2020 (64-Bit) -->
<svg xmlns="http://www.w3.org/2000/svg" xml:space="preserve" width="13.3333in" height="1.90999in" version="1.1" style="shape-rendering:geometricPrecision; text-rendering:geometricPrecision; image-rendering:optimizeQuality; fill-rule:evenodd; clip-rule:evenodd"
viewBox="0 0 13333.33 1909.99"
 xmlns:xlink="http://www.w3.org/1999/xlink"
 xmlns:xodm="http://www.corel.com/coreldraw/odm/2003">
 <defs>
  <style type="text/css">
   <![CDATA[
    .fil0 {fill:#373435}
   ]]>
  </style>
 </defs>
 <g id="Layer_x0020_1">
  <metadata id="CorelCorpID_0Corel-Layer"/>
  <path class="fil0" d="M6369.9 1253.19c1.49,73.4 4.97,135.92 1.16,203.68 -96.71,12.31 -199.15,-91.23 -195.12,-172.07 3.72,-74.77 82.09,-36.78 193.96,-31.61zm1481.6 -319.16c-37.65,-20.41 -3.49,4.91 -31.36,-29.17 -10.86,-13.28 -16.81,-22.77 -28.18,-40.15 -16.71,-25.53 -38.82,-52.74 -53.5,-83.11 -17.31,-35.83 -62.16,-177.78 -51.93,-238.63l337.8 0c2.42,69.11 -21.01,183.81 -49.57,245.27 -33.19,71.43 -71.66,101.83 -123.27,145.79zm3669.2 -702.17c72.91,105.82 250.56,137.62 387.98,137.63 245.54,0.01 484.23,-232.06 738.96,-165.36 76.34,19.99 147.47,120.85 111.65,208.81l-7666.93 0.04 -0.72 129.99 1163.1 0c4.62,49.12 -0.07,193.8 -5,235.07l-1103.33 1.94c-264.02,753.98 957.59,924.32 1473.17,825.72 26.44,-5.06 38.75,-6.54 64,-13.49 69.48,-19.13 71.83,-37.56 70.39,-89.54 -0.33,-11.86 -0.86,-25.46 -0.83,-41.22l-1.16 -376.19 -762.7 -12.2c-226.85,-3.63 -25.78,261.08 19.34,344.7 -224.1,45.41 -385.13,-211.54 -385.13,-424.72 7.18,-91.06 38.87,-69.3 178.91,-70.54l807.34 -10.97c181.37,0.18 119.21,19.28 147.91,-368.55l567.59 0c15.78,43.89 58,186.3 59.66,237.64 -78.86,19.91 -446.31,89.58 -484.91,150.8 -71.28,113.04 70.28,631.1 822.24,631.22 73.15,0.01 123.73,-90.5 128.19,-131.52 -38.76,1.86 -77.33,7.82 -108.67,7.79 -180.32,-0.2 -368.93,-101.4 -409.28,-253.55 -26.98,-101.72 4.82,-185.33 77.9,-231.48 88.69,-56.02 135.23,19.53 209.19,73.35 212.19,154.41 247.52,157.43 481.79,-16.87 20.8,-15.47 32.85,-20.24 52.91,-34.52 28.29,-20.15 67.31,-63.45 97.11,-69.35 100.38,-19.86 169.85,83.67 169.85,174.38 0,190.38 -118.04,343.5 -277.1,431.89 -87.86,48.82 -144.61,74.33 -249.11,111.1 -47.24,16.62 -92.12,26.92 -134.8,40.34 -24.41,7.68 -46.47,11.61 -71,18 -30.19,7.86 -49.65,14.03 -66.28,37.14 127.95,74.02 6.35,98.75 401.45,-6.4 161.75,-43.05 351.66,-98.58 480.49,-190.73 201.86,-144.38 323.3,-335.06 371.13,-590.68 -183.01,-73.29 -464.69,-93.31 -527.02,-143.7l99 -244.85 1484.2 0c39.74,0.01 37.57,2.23 39.99,40.39 4.89,77.3 -31.59,85.15 -89.85,85.12l-713.64 -0.41c-201.97,-0.11 -210.72,124.5 -83.01,249.57 53.88,52.77 137.14,79.42 193.47,133.94 -54.84,44.11 -239.65,64.25 -309.17,126.86 -1.41,317.44 678.19,438.32 928.43,438.31 206.76,-2.37 532.36,27.76 623.99,-252.89 -23.85,-26.39 -111.12,-51.75 -145.81,-64.31 -42.08,37.07 -81.63,137.27 -293.32,152.85 -142.56,10.5 -248.22,9.15 -383.87,-35.5 -200.91,-66.13 -240.59,-294 46.94,-294l661.69 0c2.63,-70.29 16.89,-137.25 -2.25,-137.27l-554.22 -0.59c-90.6,-0.1 -252.25,-21.06 -246.59,-140.14 181.59,-42.55 577.02,-0.88 801.91,-10.88 68.33,-3.04 47.95,-73.83 48.33,-192.31 0.35,-110.97 11.08,-89.86 154.74,-86.84 -3.24,224.49 -14.3,447.53 -11.05,672.77l381.06 7.46c20.02,-31.57 50.76,-64.83 68.3,-95.7 -296.17,-127.05 -161.26,-538.39 77.85,-596.44l945.44 0c78.94,101.63 -73.75,195.64 -154.61,215.65 -247.81,61.33 -505.78,-75.2 -613.63,29.57 -65.05,63.19 14.09,200.6 97.94,200.63 89.11,0.04 164.49,-6.57 257.87,-33.13 103.09,-29.33 213.9,-14 319.61,16.62 24.38,7.06 111.31,44.58 132.32,61.9 91.93,75.8 32.19,190.74 -29.04,249.21 -45.34,43.29 -60.46,44.29 -129.68,65.76 -50.31,15.61 -111.62,18.28 -170.19,21.98 -88.01,5.57 -95.6,16.15 -151.37,-31.59 -103.44,-88.53 -247.29,-188.17 -397.55,-143.52 -67.65,20.1 -57.91,56.11 -59.37,128.96 -1.27,62.86 -10.8,105.77 23.81,153.17 63.84,87.43 237.5,34.69 307.31,83.4 20.98,17.44 61.49,125.8 79.9,155.33 41.33,66.29 110.5,57.02 245.68,62.73 114.94,4.85 110.1,8.58 127.99,-25.42 -11.31,-27 -55.78,-21.07 -99.26,-67.68 -25.6,-27.43 -55.64,-63.43 -56.55,-107.98 32.5,-18.59 127.37,-14.45 178.36,-32.79 22.91,26.27 17.36,26.69 31.37,64.23 10.93,29.27 24.46,44.21 42.78,66.2 101.9,122.35 178.91,73.3 321.56,71.71 39.92,-0.45 69.15,-1.68 101.86,-4.84 56.19,-5.43 60.27,5.67 63.25,-47.41 -69.61,-40.33 -82.83,46.64 -256.09,-123.39 -23.08,-22.65 -39.05,-38.98 -53.28,-72.29 143.58,-74.82 310.74,-122.22 354.54,-309.24 26.45,-112.93 -26.99,-173.81 -97.4,-222.17 -48.88,-33.58 -207.59,-81.6 -226.22,-102.39 35.28,-25.5 67.47,-29.54 104.91,-47.88 15.36,-7.53 74.67,-48.2 93.47,-62.4 46.21,-34.88 130.52,-145.78 150.06,-212.92l115.96 0c2.84,175.8 -29.33,997.32 -2.13,1027.44 31.16,34.51 336.91,23.39 412.55,23.4 55.31,0.01 95.69,-55.41 113.07,-107.69 -25.81,-4.44 -37.87,-7.93 -57.92,-21.83 -202.84,-140.72 -165.68,-480.89 -109.38,-681.57 15.72,-56.04 52.52,-126.1 81.52,-171.99l37.92 -67.75 124.15 0 6.89 -130.03 -87.83 0c-62.84,0 -15.59,-31.93 -56.2,-145.68 -24.17,-67.7 -92.52,-145.57 -149.45,-172.92 -194.17,-93.28 -458.78,-113 -666.44,-31.32 -40.27,15.84 -81.44,26.77 -124.61,42.28 -166.47,59.81 -322.28,119.96 -507.38,97.57 -127.37,-15.41 -138.94,-83.17 -221.91,29zm-10337.71 893.98c-42.51,-132.91 -10.26,-113.02 194.62,-104.77 8.55,69.08 31.61,221.03 -8.29,284.63 -80.69,-18.73 -160.86,-100.22 -186.33,-179.86zm1920.54 -179.13c56.39,-22.06 101.77,-49.02 123.96,-97.56l498.96 9.19c13.31,1.03 22.65,2.02 26.57,7.8 0,62.8 -0.11,125.61 -0.11,188.41 0,40.56 4.37,59.22 -34.09,79.34 -34.96,12.12 -71.48,29.79 -99.94,36.47 -205.6,48.26 -514.8,67.03 -515.35,-223.66zm-1451.61 -403.74l409.26 0c6.07,0.69 10.1,2.81 10.98,7.12l0 308.37 -352.07 13.39c-11.44,-133.72 -48.27,-216.46 -68.18,-328.88zm-1031.75 -130.03c-10.02,-40.3 -26.77,-111.72 -0.34,-154.26 77.02,-123.97 245.07,-88.48 356.91,-57.17 68.45,19.17 147.26,77.66 215.19,106.68 242.48,103.59 418.03,96.42 646.22,-47.94 -6.03,-43.13 -49.65,-103.93 -78.48,-130.88 -48.2,16.56 -47.09,43.71 -119.83,56.68 -181.54,32.35 -390.69,-68.61 -539.29,-118.47 -212.24,-71.22 -672.64,-115.1 -855.18,32.06 -43.96,35.44 -70.2,60.01 -93.63,120.96 -68.02,176.92 90.46,187.03 -152.92,192.35l0.27 130.03 161.38 0.08c210.94,529.36 261.62,537.57 -87.39,916.85 156.75,110.6 557.55,127.21 576.59,55.97l0 -972.91 339.06 0c195.43,-0.31 353.73,157.94 337.63,335.7 -204.35,12.2 -404.3,-4.26 -573.11,11.45 -1.7,506.24 413.47,650.86 858.3,632.8 49.01,-71.26 74.05,-148.55 96.31,-253.59 52.14,-246.06 -38.41,-249.48 100.61,-249.33l263.7 -5.51 0 539.26 474.79 7.74c15.66,-33.3 51.24,-91.84 58.24,-132.78 -48.48,-20.28 -48.79,6.76 -95.22,-37.74 -145.52,-139.46 -83.48,-465.56 -40.72,-630.37 11.99,-46.2 25.58,-73.54 44.06,-118.99 51.28,-126.12 67.24,-91.19 335.08,-93.94 32.72,39.27 64.62,58.83 72.85,130.8 6.96,60.93 -16.77,122.5 -53.48,150.78 -82.33,63.43 -133.13,69.84 -230.72,73.42 -42.19,1.55 -51.17,-0.51 -51.13,47.87 0.17,228.89 230.82,362.42 436.12,406.68 149.42,32.22 222.11,26.89 376.96,19.63 139.24,-6.52 261.5,-69.38 349.19,-79.37l-4.67 264.04 504.62 1.07c24.03,-38.97 74.03,-105.48 79.13,-153.87 -333.42,-11.31 -208.61,-524.43 -135.2,-720.48 29.67,-79.31 57.96,-144.8 149.66,-145.06l72.85 -0.2 -5 -130.03 -656.44 0 -0.22 273.5c-0.02,22.52 0.74,37.96 -5.43,47.8 -11.39,6.11 -376.24,0.89 -432.82,-2.66 -10.23,-148.72 44.04,-318.65 -100.94,-318.65l-2593.54 0zm5843.17 1497.66c51.29,0 217.7,-5.78 248.95,-23.54 35.04,-19.91 101.6,-105.02 107.3,-162.47l-20.23 -22.78c-50.81,3.8 -90.6,22.21 -149.65,29.27 -168.72,20.17 -223.41,47.56 -469.52,56.34 -342.86,12.22 -583.51,-75.31 -616.24,-74.97 -7.01,69.09 14.74,68.9 59.99,110.03 33.43,30.39 48.35,67.11 107.05,72.81 230.48,22.36 502.07,15.33 732.35,15.32zm-3616.37 -1846.38l-257.82 -8.87c-39.29,8.96 -8.68,44.89 -53.4,83.91 -19,16.57 -70.71,39.19 -102.68,43.36 -50.99,6.66 -88.87,4.9 -125.23,-11.71 -63.03,-28.81 -37.09,-33.37 -67.17,-77.64 -16.96,-24.98 13.95,-17.23 -45.31,-24.24l-189.61 -7.71c-137.74,-5.12 32.7,311.57 499.78,246.72 147.63,-20.5 342.33,-98.32 341.45,-243.81z"/>
 </g>
</svg>
